# xmcd
#
# Track frame offsets:
#	150
#	24450
#	43464
#	50800
#	75700
#	102183
#	114827
#	142665
#	162454
#	183461
#
# Disc length: 2724 seconds
#
# Revision: 1
# Processed by: cddbd v1.5PL3 Copyright (c) Steve Scherf et al.
# Submitted via: CDex 1.50Beta5
#
DISCID=810aa20a
DTITLE=Various Artist - ちいさなぬくもり -恋人たちの、ほのかな恋物語-
DYEAR=1900
DGENRE=Soundtrack
TTITLE0=J.ichimura/ちいさなぬくもり
TTITLE1=華飯/White&Bright
TTITLE2=Kanon.F/ふたりの午後
TTITLE3=エヌエイ/やさしい風
TTITLE4=りいふ/いつかどこかで見た風景
TTITLE5=雪ノ瀬ついね/氷輪
TTITLE6=華飯/(I heard)you callin’my name.
TTITLE7=M’s Factory/天使降臨
TTITLE8=MAYU/つわぶきの花
TTITLE9=つわぶきの花 〜カラオケバージョン〜
EXTD=
EXTT0=
EXTT1=
EXTT2=
EXTT3=
EXTT4=
EXTT5=
EXTT6=
EXTT7=
EXTT8=
EXTT9=
PLAYORDER=
